/* XPM */
static const char *import_xpm[] = {
/* columns rows colors chars-per-pixel */
"16 16 137 2",
"=. c #FD3A3E",
"R  c #CACACA",
"$. c #D9D9D9",
"m  c #FB4046",
"~  c #F94950",
">. c #A12149",
"h  c #C2112B",
"+. c #C3C3C3",
"4  c #C40B31",
"H  c #AB264A",
"-  c #FFFFFF",
"8. c #BA99A4",
"z  c #E83D51",
"5  c #C2113C",
"u. c #AA7184",
"L  c #FF1C1D",
"U  c #B55D79",
"i  c #9E9EA1",
"d. c #BCBCBC",
"j  c #FE0000",
"'  c #88888D",
"j. c #B5B5B5",
"e  c #FC0000",
"B  c #FF0D0B",
"Q  c #E2E2E2",
"k  c #F50209",
"|  c #FE292C",
";. c #FF3C3B",
"=  c #A9AAAB",
"w. c #BDBDBD",
"f  c #A71A41",
"]  c #DBDBDB",
"V  c #FF0101",
":  c #D6A2B3",
"4. c #EC7480",
"8  c #F1E5E9",
"X  c #61ADDC",
"n  c #A01942",
"3  c #B31338",
"i. c #C5C5C5",
"2. c #D4D4D4",
"_  c #E8E7E7",
"   c #5877A6",
"g  c #B14867",
"}  c #FB3C41",
";  c #F4E6EB",
"D  c #919195",
"g. c #BEBEBE",
"S  c #CDCDCD",
"O. c #DCDCDC",
"Y  c #EBEBEB",
"1  c #DFB7C4",
"a  c #FAFAFA",
"/  c #FF2122",
")  c #EB0E16",
":. c #E63F49",
"@. c #85868B",
"(  c #FF1817",
"q. c #D5D5D5",
"#. c #E4E4E4",
"[  c #B32D4F",
"%. c #B83151",
"N  c #FF1514",
"r  c #F2000A",
"I  c #FF1210",
"E  c #8D8E92",
"6  c #A1A1A4",
"0. c #DDDDDD",
"o. c #950937",
"W  c #ECECEC",
"p  c #FBFBFB",
"+  c #6BC0EB",
"Z  c #AC2347",
"t. c #A13759",
"6. c #98103C",
"C  c #F72A2D",
"%  c #7086A7",
"o  c #4168A1",
"a. c #D6D6D6",
"T  c #E5E5E5",
"&  c #466CA6",
"-. c #FF3839",
"9  c #B03D60",
"7. c #A43859",
"r. c #CFCFCF",
"1. c #DEDEDE",
"w  c #AE3D5E",
"y  c #E11732",
"X. c #F52126",
".  c #5FA9D8",
"f. c #78797F",
"K  c #FD2F33",
"y. c #9C1B45",
"`  c #C8C8C8",
"2  c #9E123D",
"9. c #D7D7D7",
"G  c #E6E6E6",
" . c #FF2021",
"3. c #AE3154",
"<. c #808186",
",. c #C1C1C1",
"s. c #D0D0D0",
".. c #FF1715",
">  c #AF4164",
"b  c #EEEEEE",
"$  c #0077C3",
"!  c #AE284B",
"7  c #FDFDFD",
"l  c #F00B18",
"5. c #BB3D5A",
"P  c #FF1413",
"&. c #F8515A",
"O  c #68BBE7",
"c  c #97989B",
"J  c #FA454C",
"<  c #A6A7A9",
"e. c #7E7E84",
"d  c #E12E3E",
"{  c #F84E57",
"0  c #C57790",
"*. c #FA4249",
"v  c #F6F6F6",
"^  c #FC3338",
"#  c #0879C2",
"M  c #FE2729",
"s  c #A83156",
"p. c #D1D1D1",
"@  c #4167A1",
"F  c #EFEFEF",
"x  c #A01D47",
",  c #A32A51",
"u  c #DB3D5D",
"q  c #F4F0F2",
"A  c #D6CFD2",
"t  c #EC0213",
"h. c #BBBBBB",
"*  c #3A63A0",
/* pixels */
"  . X X X X X X X X X X X X X X ",
"o O + + + + + + + + + + + + + + ",
"@ # $ $ $ $ $ $ $ $ $ $ $ $ $ $ ",
"% & * * * * * * * * * * * * * * ",
"= - - - - - - - - - - - ; : > , ",
"< - - - - - - - - - - 1 2 3 4 5 ",
"6 7 7 7 7 7 8 9 0 q w e r t y u ",
"i p p p p a s d f g h j k l z x ",
"c v v v v b n m M N B V C Z A S ",
"D F F F F G H J K L P I U Y T R ",
"E W W W W Q ! ~ ^ / ( ) _ W Q ` ",
"' G G G G ] [ { } |  ...X.o.O.+.",
"@.#.#.#.#.$.%.&.*.=.-.;.:.>.] ,.",
"<.1.1.1.1.2.3.4.5.6.7.8.9.0.q.w.",
"e.9.9.9.9.r.t.y.u.i.R p.a.9.s.d.",
"f.g.g.g.g.w.h.d.g.g.g.g.g.g.d.j."
};
