/* XPM */
static const char *MerryIcon_xpm[] = {
/* columns rows colors chars-per-pixel */
"64 64 99 2",
"   c gray10",
".  c #1B1B1B",
"X  c gray11",
"o  c #1D1D1D",
"O  c #1E1E1E",
"+  c #202020",
"@  c gray13",
"#  c gray14",
"$  c gray16",
"%  c #2A2A2A",
"&  c gray17",
"*  c #2C2C2C",
"=  c #2D2D2D",
"-  c gray18",
";  c #2F2F2F",
":  c #313131",
">  c #323232",
",  c #343434",
"<  c gray21",
"1  c gray22",
"2  c #3C3C3C",
"3  c gray24",
"4  c #414141",
"5  c #444444",
"6  c gray27",
"7  c gray28",
"8  c #484848",
"9  c #4C4C4C",
"0  c #505050",
"q  c #515151",
"w  c gray33",
"e  c #565656",
"r  c #585858",
"t  c #5A5A5A",
"y  c gray36",
"u  c #606060",
"i  c #646464",
"p  c #6A6A6A",
"a  c gray43",
"s  c gray45",
"d  c #777777",
"f  c gray47",
"g  c #818181",
"h  c gray54",
"j  c #909090",
"k  c #929292",
"l  c gray58",
"z  c #959595",
"x  c #979797",
"c  c gray60",
"v  c #9B9B9B",
"b  c #9D9D9D",
"n  c gray62",
"m  c #9F9F9F",
"M  c #A0A0A0",
"N  c #A2A2A2",
"B  c #A4A4A4",
"V  c #A7A7A7",
"C  c #A9A9A9",
"Z  c gray68",
"A  c #B1B1B1",
"S  c gray71",
"D  c gray72",
"F  c #B9B9B9",
"G  c gray73",
"H  c #BCBCBC",
"J  c gray74",
"K  c #C1C1C1",
"L  c gray76",
"P  c #C5C5C5",
"I  c #C6C6C6",
"U  c gray79",
"Y  c #CBCBCB",
"T  c gray80",
"R  c gray81",
"E  c gray82",
"W  c LightGray",
"Q  c #D7D7D7",
"!  c gray85",
"~  c gainsboro",
"^  c #DFDFDF",
"/  c gray88",
"(  c gray89",
")  c gray90",
"_  c #E6E6E6",
"`  c gray93",
"'  c #F1F1F1",
"]  c gray95",
"[  c #F3F3F3",
"{  c gray96",
"}  c #F6F6F6",
"|  c gray97",
" . c #F8F8F8",
".. c #F9F9F9",
"X. c gray98",
"o. c #FBFBFB",
"O. c gray99",
"+. c #FDFDFD",
"@. c gray100",
/* pixels */
"                                                                                                                                ",
"                                                                                                                                ",
"                                                                                                                                ",
"                                                                                                                                ",
"                                                                                                                                ",
"                                                                                                                                ",
"                                                                                                                                ",
"                                                                                                                                ",
"                                                                                                                                ",
"                                                                                                                                ",
"                                                                                                                                ",
"                                                                                                                                ",
"                                                                                                                                ",
"                                                                                                                                ",
"                                                                                                                                ",
"                        @.@.@.@.@.@.@.@.D                                               j @.@.@.@.@.@.@.@.                      ",
"                        @.@.@.@.@.@.@.@.@.7                                           % ] @.@.@.@.@.@.@.@.                      ",
"                        @.@.@.@.@.@.@.@.@.H                                           k @.@.@.@.@.@.@.@.@.                      ",
"                        @.@.@.@.@.@.@.@.@.@.9                                       & [ @.@.@.@.@.@.@.@.@.                      ",
"                        @.@.@.@.@.@.@.@.@.@.L                                       z @.@.@.@.@.@.@.@.@.@.                      ",
"                        @.@.@.@.@.@.@.@.@.@.@.0                                   * { @.@.@.@.@.@.@.@.@.@.                      ",
"                        @.@.@.@.@.@.@.@.@.@.@.I                                   x @.@.@.@.@.@.@.@.@.@.@.                      ",
"                        @.@.@.@.@.@.@.@.@.@.@.@.e                               = { @.@.@.@.@.@.@.@.@.@.@.                      ",
"                        @.@.@.@.@.@.@.@.@.@.@.@.Y                               c @.@.@.@.@.@.@.@.@.@.@.@.                      ",
"                        @.@.@.@.@.@.@.@.@.@.@.@.@.t                           ; } @.@.@.@.@.@.@.@.@.@.@.@.                      ",
"                        @.@.@.@.@.@.@.@.@.@.@.@.@.R                           v @.@.@.@.@.@.@.@.@.@.@.@.@.                      ",
"                        @.@.@.@.@.@.@.@.@.@.@.@.@.@.u                       : } @.@.@.@.@.@.@.@.@.@.@.@.@.                      ",
"                        @.@.@.@.@.G @.@.@.@.@.@.@.@.W                       n @.@.@.@.Q @.@.@.@.@.@.@.@.@.                      ",
"                        @.@.@.@.@.5 +.@.@.@.@.@.@.@.@.i                   > | @.@.@.@.i @.@.@.@.@.@.@.@.@.                      ",
"                        @.@.@.@.@.  A @.@.@.@.@.@.@.@.Q .                 M @.@.@.@.W   @.@.@.@.@.@.@.@.@.                      ",
"                        @.@.@.@.@.  2 o.@.@.@.@.@.@.@.@.p               ,  .@.@.@.@.u   @.@.@.@.@.@.@.@.@.                      ",
"                        @.@.@.@.@.    V @.@.@.@.@.@.@.@.~ .             N @.@.@.@.E     @.@.@.@.@.@.@.@.@.                      ",
"                        @.@.@.@.@.    ,  .@.@.@.@.@.@.@.@.a           , ..@.@.@.@.y     @.@.@.@.@.@.@.@.@.                      ",
"                        @.@.@.@.@.      b @.@.@.@.@.@.@.@.^ X         B @.@.@.@.T       @.@.@.@.@.@.@.@.@.                      ",
"                        @.@.@.@.@.      - { @.@.@.@.@.@.@.@.s       < X.@.@.@.@.r       @.@.@.@.@.@.@.@.@.                      ",
"                        @.@.@.@.@.        l @.@.@.@.@.@.@.@.( O     V @.@.@.@.U         @.@.@.@.@.@.@.@.@.                      ",
"                        @.@.@.@.@.        $ ' @.@.@.@.@.@.@.@.f   1 X.@.@.@.@.w         @.@.@.@.@.@.@.@.@.                      ",
"                        @.@.@.@.@.          h @.@.@.@.@.@.@.@.) + C @.@.@.@.P           @.@.@.@.@.@.@.@.@.                      ",
"                        @.@.@.@.@.          # ` @.@.@.@.@.@.@.@.m o.@.@.@.@.0           @.@.@.@.@.@.@.@.@.                      ",
"                        @.@.@.@.@.            g @.@.@.@.@.@.@.@.@.@.@.@.@.K             @.@.@.@.@.@.@.@.@.                      ",
"                        @.@.@.@.@.            @ _ @.@.@.@.@.@.@.@.@.@.@.@.9             @.@.@.@.@.@.@.@.@.                      ",
"                        @.@.@.@.@.              d @.@.@.@.@.@.@.@.@.@.@.J               @.@.@.@.@.@.@.@.@.                      ",
"                        @.@.@.@.@.              o / @.@.@.@.@.@.@.@.@.@.8               @.@.@.@.@.@.@.@.@.                      ",
"                        @.@.@.@.@.                a @.@.@.@.@.@.@.@.@.F                 @.@.@.@.@.@.@.@.@.                      ",
"                        @.@.@.@.@.                . ! @.@.@.@.@.@.@.+.6                 @.@.@.@.@.@.@.@.@.                      ",
"                        @.@.@.@.@.                  i @.@.@.@.@.@.@.S                   @.@.@.@.@.@.@.@.@.                      ",
"                        @.@.@.@.@.                    E @.@.@.@.@.+.4                   @.@.@.@.@.@.@.@.@.                      ",
"                        @.@.@.@.@.                    t @.@.@.@.@.A                     @.@.@.@.@.@.@.@.@.                      ",
"                        @.@.@.@.@.                      U @.@.@.O.3                     @.@.@.@.@.@.@.@.@.                      ",
"                        @.@.@.@.@.                      q @.@.@.Z                       @.@.@.@.@.@.@.@.@.                      ",
"                                                                                                                                ",
"                                                                                                                                ",
"                                                                                                                                ",
"                                                                                                                                ",
"                                                                                                                                ",
"                                                                                                                                ",
"                                                                                                                                ",
"                                                                                                                                ",
"                                                                                                                                ",
"                                                                                                                                ",
"                                                                                                                                ",
"                                                                                                                                ",
"                                                                                                                                ",
"                                                                                                                                "
};
